<svg xmlns="http://www.w3.org/2000/svg" viewBox="0 0 235.31 120.09"><defs><style>.cls-1{fill:#044192;}.cls-2{fill:#6ed0eb;}.cls-3{fill:none;}.cls-4{isolation:isolate;}.cls-5{fill:#fff;}</style></defs><g id="Capa_2" data-name="Capa 2"><g id="Capa_1-2" data-name="Capa 1"><path class="cls-1" d="M114.91,27c-.5-.8,0-1-2-1.4,0,0-.7-.3-.8-.2-4.8,1.3-41.2.3-58.9-8.7-8.7-4.4-12.4-10.6-2.6-14,.7-.2,2-.5,3.5-.8a6.2,6.2,0,0,1,1.4-1.4c-8.1.1-23.6,4.1-23.4,12.1.6,17.1,72.7,27.4,81,18.6.8-1.1,2.4-3.3,1.8-4.2"/><path class="cls-1" d="M122.31,55.28c-.1-1-1.9-1.7-1.9-2.6a8,8,0,0,1-2.3.2c-41.9.9-114.1-18.5-92.6-41.5a30,30,0,0,1,4.9-3.7c-1,.6-2,1.2-2.8,1.7a64.35,64.35,0,0,0-8.1,6.3l-4,4c-2.3,2.6-4.9,6.7-3.8,11.4,6,26.1,103.6,38.4,109.1,27.7.1-.9,1.6-2.4,1.5-3.5"/><path class="cls-1" d="M6.51,32.58c-1.1,2.2-2.4,5.3-3.3,7.6-1.1,3.2-1.1,3.3-2.5,9.5a8.87,8.87,0,0,0-.2,1.5c-1.8,30.5,100.9,46.9,113.8,36.1,1-1.5,1.7-3.9,2.5-5.5-.1,0-.2.1-.3.1-8.3,2.3-126.1-12.2-110-49.3"/><path class="cls-1" d="M.11,65.68c.3,2.4.8,5.5,1.2,7.9a70.41,70.41,0,0,0,2.9,9.3c9.7,23.7,80,32.3,91.9,25.9,1.4-1.1,3.2-2.6,4.5-3.7l.4-.3c-7.4,3.2-95.3-6-100.9-39.1"/><path class="cls-1" d="M12.31,96.88l2.4,2.9a70.24,70.24,0,0,0,7.2,7c1.1.9,2.7,2.1,3.9,2.9,12,8.2,34.3,11.5,44.5,10.1a70.84,70.84,0,0,0,7.8-1.8c-8.5,1.6-50.1-3-65.8-21.1"/><path class="cls-2" d="M116.41,25.78c-.8-1.9-5.6-2.2-8.6-1.7,8.6,1.7,5.4,7.1,5.4,7.1,2.4-2,3.9-3.9,3.2-5.4"/><path class="cls-2" d="M23.51,13.38c8.5-4.9,9.1-5.2,35.8-11.3,2-.4,7.2-2.5-1.6-2-7.3.4-17.4,2.3-25.5,6.6-12.6,6.6-15.6,11.7-16.8,13a37.2,37.2,0,0,1,8.1-6.3"/><path class="cls-2" d="M126.11,51c-3.5-2.6-15.4-.6-15.4-.6,12.5.1,10.5,7.6,9.2,9.4,5-2,9.3-6.6,6.2-8.8"/><path class="cls-2" d="M4.81,41.28c8.5-10.5,27-18.8,58.2-26.1,11.2-2.6,14.7-7-1.6-6.1-16.5,1-41.8,7.4-52.4,19.7-5.4,6.3-7.6,17.4-8.2,20.8a18.17,18.17,0,0,1,4-8.3"/><path class="cls-2" d="M117.31,81.28c-1.2-1.6-5.2-2.4-8.9-2.1,9,2.3,5.9,8.2,5.9,8.2,3.1-1.9,4.3-4.2,3-6.1"/><path class="cls-2" d="M3.31,77.18c1.2-19.7,42-31.3,57.2-35.9,29.9-9.1,32.4-22-1.9-15-19.7,4-44.5,14.8-54.4,26.9-2.5,3.6-4.1,6.3-4.2,12.5a39.75,39.75,0,0,0,4.2,17.2,10.6,10.6,0,0,1-.9-5.7"/><path class="cls-2" d="M101.51,104.48c-.4-1.5-3.6-3.2-13.2-1.6,7.7.8,9.7,4.1,7.9,5.9-.1,0,5.8-2.1,5.3-4.3"/><path class="cls-2" d="M21.51,106c-11.2-13.2,6.6-26.3,52.9-38.6,16.5-4.4,19.1-12.9-6.5-10.3-19.8,2-46.3,10.8-55.5,22-3.2,4.7-5.8,9.9-.2,17.8l2.4,2.9a63.65,63.65,0,0,0,7.2,7c1.2.9,2.7,2.1,3.9,2.9a20.67,20.67,0,0,1-4.2-3.7"/><path class="cls-2" d="M71.21,119.58c-.3.1-.6.1-1,.2a3.55,3.55,0,0,1,1-.2"/><path class="cls-2" d="M68.41,116.08c3,.7,6.1,1.4,4.2,2.9a3.08,3.08,0,0,1-1.4.6s7.8,0,7-2.4c-.6-1.4-4.5-1.2-9.8-1.1"/><path class="cls-2" d="M73,84.78c-16.2.8-37.3,7.5-43.1,16-8.4,17.5,30,19.1,30,19.1-2.6-.4-20.1-2.3-18.6-9.6.9-4.4,7.7-7.6,12.2-9.7,10.1-4.8,21.4-6.2,31.5-11,3.8-1.8,3.3-5.5-12-4.8"/><rect class="cls-3" x="41.81" y="24.88" width="193.5" height="69.8"/><g class="cls-4"><path class="cls-5" d="M62.35,93.29V38.69H43.55v-9.4h50.9v9.4H75.75v54.6Z"/><path class="cls-5" d="M131.85,93.29h-29v-64h29c16.7,0,27.4,11.6,27.4,32S148.55,93.29,131.85,93.29Zm-4.1-54.8h-11.5v45.6h11.5c12.5,0,17.7-9.4,17.7-22.8S140.25,38.49,127.75,38.49Z"/><path class="cls-5" d="M212.75,93.29a3.54,3.54,0,0,1-3.5-2l-25.1-43-1,.4v44.6H169.74v-64h11.7a3.62,3.62,0,0,1,3.61,2.1l25.1,42.9,1-.4V29.29h13.4v64Z"/></g></g></g></svg>