<svg xmlns="http://www.w3.org/2000/svg" viewBox="0 0 356.03 119.99"><defs><style>.cls-1{fill:#044192;}.cls-2{fill:#6ed0eb;}.cls-3{fill:#fff;}</style></defs><g id="Capa_2" data-name="Capa 2"><g id="Capa_1-2" data-name="Capa 1"><path class="cls-1" d="M114.82,26.92c-.53-.78,0-1-2-1.39,0,0-.73-.29-.75-.24-4.84,1.33-41.17.25-58.87-8.73-8.69-4.4-12.36-10.62-2.58-14a21.89,21.89,0,0,1,3.48-.75A6.27,6.27,0,0,1,55.51.44c-8.14.1-23.65,4.08-23.38,12.11.55,17.05,72.66,27.42,81,18.56.72-1.08,2.23-3.35,1.65-4.19"/><path class="cls-1" d="M122.23,55.17c-.13-1.05-1.88-1.67-2-2.56a8.9,8.9,0,0,1-2.3.21C76,53.76,3.87,34.29,25.4,11.28a24.86,24.86,0,0,1,4.93-3.65c-1,.56-2,1.16-2.81,1.66a63.49,63.49,0,0,0-8.13,6.27c-1.25,1.16-2.82,2.81-4,4-2.32,2.59-4.86,6.67-3.77,11.41C17.63,57,115.17,69.4,120.72,58.73c.17-.93,1.65-2.46,1.51-3.56"/><path class="cls-1" d="M6.4,32.54c-1.06,2.24-2.35,5.28-3.26,7.58C2,43.33,2,43.45.67,49.62c-.06.46-.16,1.08-.19,1.54C-1.29,81.62,101.33,98.08,114.27,87.25a44.1,44.1,0,0,0,2.46-5.53l-.26.11C108.18,84.08-9.62,69.58,6.4,32.54"/><path class="cls-1" d="M0,65.61c.27,2.38.81,5.54,1.25,7.9.76,3.34.85,3.57,2.94,9.34,9.68,23.73,80,32.29,91.9,25.86,1.4-1.06,3.19-2.56,4.54-3.69l.36-.32c-7.4,3.23-95.35-6-101-39.09"/><path class="cls-1" d="M12.24,96.83l2.35,2.87a61.14,61.14,0,0,0,7.2,7c1.13.92,2.7,2.06,3.87,2.93,12,8.24,34.35,11.46,44.45,10a64.12,64.12,0,0,0,7.79-1.82c-8.39,1.64-50-2.94-65.66-21"/><path class="cls-2" d="M116.35,25.68c-.84-1.9-5.58-2.17-8.61-1.67,8.61,1.67,5.43,7.1,5.43,7.1,2.36-2,3.84-3.92,3.18-5.43"/><path class="cls-2" d="M23.43,13.32c8.5-4.88,9.09-5.22,35.8-11.26,2-.44,7.22-2.46-1.63-2-7.33.4-17.44,2.32-25.54,6.57-12.54,6.6-15.52,11.69-16.68,12.94a35,35,0,0,1,8-6.26"/><path class="cls-2" d="M126.1,50.88c-3.48-2.55-15.41-.61-15.41-.61,12.48.15,10.48,7.61,9.19,9.44,5-2,9.25-6.6,6.22-8.83"/><path class="cls-2" d="M4.74,41.24c8.52-10.54,27-18.82,58.2-26.05,11.17-2.59,14.71-7-1.6-6.06-16.5,1-41.84,7.44-52.44,19.7C3.48,35.1,1.26,46.24.67,49.62a18.49,18.49,0,0,1,4.07-8.38"/><path class="cls-2" d="M117.22,81.2c-1.15-1.6-5.2-2.36-8.89-2.11,9,2.34,5.94,8.16,5.94,8.16,3.06-1.88,4.29-4.19,3-6"/><path class="cls-2" d="M3.2,77.1c1.18-19.67,42-31.29,57.25-35.93,29.86-9.08,32.41-22-1.85-15-19.74,4-44.52,14.78-54.39,26.94C1.7,56.72.16,59.35,0,65.61A39.76,39.76,0,0,0,4.2,82.85a10.78,10.78,0,0,1-1-5.75"/><path class="cls-2" d="M101.4,104.42c-.4-1.52-3.64-3.24-13.19-1.63,7.69.79,9.72,4.11,7.89,5.92,0,0,5.87-2.14,5.3-4.29"/><path class="cls-2" d="M21.4,105.9C10.17,92.74,28,79.62,74.35,67.25c16.48-4.39,19.1-12.9-6.46-10.27C48.11,59,21.56,67.79,12.42,79c-3.18,4.68-5.82,9.9-.18,17.84l2.35,2.87a59.37,59.37,0,0,0,7.2,7c1.15.89,2.68,2.09,3.87,2.93a25.12,25.12,0,0,1-4.26-3.72"/><path class="cls-2" d="M71.12,119.49l-1,.18c.38,0,.72-.12,1-.18"/><path class="cls-2" d="M68.31,116c3,.71,6.13,1.38,4.17,2.9a3.31,3.31,0,0,1-1.36.59s7.83,0,7-2.41c-.49-1.37-4.46-1.18-9.77-1.08"/><path class="cls-2" d="M73,84.67c-16.21.75-37.27,7.52-43.11,16-8.38,17.52,30,19.1,30,19.1-2.61-.43-20.08-2.34-18.56-9.63.92-4.36,7.74-7.58,12.25-9.72,10.1-4.78,21.38-6.24,31.48-11,3.78-1.76,3.25-5.53-12-4.82"/><path class="cls-3" d="M52,77.6V50.3h-9.4V45.6H68.09v4.7H58.74V77.6Z"/><path class="cls-3" d="M87,77.6V64c0-3.85-1-5.85-4.06-5.85-2.7,0-4.55,2.35-4.55,6.75V77.6H72.08V43.4h6.35V58.6l.5.2c1.41-3.6,3.45-5,6.51-5,5.35,0,8,2.75,8,9V77.6Z"/><path class="cls-3" d="M98.08,65.8c0-7.25,5-12,11.55-12,6.85,0,10.56,4.25,10.56,10.55a7.44,7.44,0,0,1-.25,1.8H104.63c0,5.2,2.65,7.6,6.25,7.6s5.25-2.35,6.25-2.35c.6,0,1,.2,1.46,1.3l.94,2.2a14.59,14.59,0,0,1-9.65,3.2C102.53,78.05,98.08,72.8,98.08,65.8Zm6.55-2.7h9c0-3-1.5-5.15-4.3-5.15S104.63,60.1,104.63,63.1Z"/><path class="cls-3" d="M151.83,77.6h-14.5v-32h14.5c8.35,0,13.7,5.8,13.7,16S160.18,77.6,151.83,77.6Zm-2.05-27.4H144V73h5.75c6.25,0,8.85-4.7,8.85-11.4S156,50.2,149.78,50.2Z"/><path class="cls-3" d="M169.28,71c0-3.45,2.05-5,6.25-6l5.75-1.4a2.23,2.23,0,0,0,1.95-2.3c0-2-1.2-3.1-3.65-3.1-2.85,0-5.35,2.65-6.55,2.65-.75,0-1.2-.35-1.65-1.3l-.9-2.2a14.07,14.07,0,0,1,9.3-3.5c6.2,0,9.5,2.7,9.5,8.4V77.6h-3.15a1.57,1.57,0,0,1-1.75-1.2l-.5-3.2-.5-.2c-1.4,3.9-3.7,5-6.7,5A7,7,0,0,1,169.28,71Zm13.95-3.9V65.8l-5,1.45c-1.8.5-2.7,1.5-2.7,3.15a3,3,0,0,0,3.1,3.3C181.38,73.7,183.23,71,183.23,67.05Z"/><path class="cls-3" d="M194.73,46.85c0-1.9,1.45-3.05,3.65-3.05s3.7,1.15,3.7,3.05-1.45,3-3.7,3S194.73,48.75,194.73,46.85Zm.5,30.75V54.2h6.35V77.6Z"/><path class="cls-3" d="M207.88,77.6V43.4h6.35V77.6Z"/><path class="cls-3" d="M226.58,77.4l-9.45-23.2h5.45c.9,0,1.25.25,1.6,1.4l5,15.05h.5l5.05-15.05c.3-1.15.7-1.4,1.55-1.4h5.5l-12.7,30.9c-.4,1-.85,1.3-1.7,1.3h-4.75Z"/><path class="cls-3" d="M278.38,77.6a1.77,1.77,0,0,1-1.75-1L264.08,55.1l-.5.2V77.6h-6.7v-32h5.85a1.8,1.8,0,0,1,1.8,1L277.08,68.1l.5-.2V45.6h6.7v32Z"/><path class="cls-3" d="M289.43,65.9c0-7.35,4.9-12.15,12.05-12.15s12,4.8,12,12.15-4.9,12.15-12,12.15S289.43,73.25,289.43,65.9Zm17.5,0c0-5-2.2-7.8-5.45-7.8S296,61,296,65.9s2.2,7.8,5.5,7.8S306.93,70.85,306.93,65.9Z"/><path class="cls-3" d="M319.68,69.7V57.4H316V54.2h3.7l.8-4.3c.65-2.25,1.3-2.8,3.1-2.8H326v7.1h4.5v3.2H326V69.9c0,3,.4,3.8,3.35,3.8.8,0,1.15.3,1.15,1.15V77.5a18.56,18.56,0,0,1-4.15.55C321.48,78.05,319.68,75.8,319.68,69.7Z"/><path class="cls-3" d="M333.93,65.8c0-7.25,5-12,11.55-12C352.33,53.75,356,58,356,64.3a7.44,7.44,0,0,1-.25,1.8h-15.3c0,5.2,2.65,7.6,6.25,7.6S352,71.35,353,71.35c.6,0,.95.2,1.45,1.3l.95,2.2a14.59,14.59,0,0,1-9.65,3.2C338.38,78.05,333.93,72.8,333.93,65.8Zm6.55-2.7h8.95c0-3-1.5-5.15-4.3-5.15S340.48,60.1,340.48,63.1Z"/></g></g></svg>